<mxfile host="app.diagrams.net" agent="Mozilla/5.0 (Windows NT 10.0; Win64; x64) AppleWebKit/537.36 (KHTML, like Gecko) Chrome/141.0.0.0 Safari/537.36" version="28.2.8">
  <diagram name="Trang-1" id="1YNEwIqxPZC8z1Oe_gAj">
    <mxGraphModel dx="1042" dy="658" grid="1" gridSize="10" guides="1" tooltips="1" connect="1" arrows="1" fold="1" page="1" pageScale="1" pageWidth="827" pageHeight="1169" math="0" shadow="0">
      <root>
        <mxCell id="0" />
        <mxCell id="1" parent="0" />
        <mxCell id="6zh7Bu0ZLJJWDLKkboeI-1" value="" style="whiteSpace=wrap;html=1;aspect=fixed;" parent="1" vertex="1">
          <mxGeometry x="527" y="300" width="563" height="563" as="geometry" />
        </mxCell>
        <mxCell id="6zh7Bu0ZLJJWDLKkboeI-14" value="library system" style="text;html=1;align=center;verticalAlign=middle;whiteSpace=wrap;rounded=0;" parent="1" vertex="1">
          <mxGeometry x="770" y="300" width="60" height="30" as="geometry" />
        </mxCell>
        <mxCell id="6zh7Bu0ZLJJWDLKkboeI-15" value="customer&lt;div&gt;&lt;br&gt;&lt;/div&gt;" style="shape=umlActor;verticalLabelPosition=bottom;verticalAlign=top;html=1;outlineConnect=0;" parent="1" vertex="1">
          <mxGeometry x="310" y="420" width="30" height="60" as="geometry" />
        </mxCell>
        <mxCell id="6zh7Bu0ZLJJWDLKkboeI-16" value="customer&lt;div&gt;&lt;br&gt;&lt;/div&gt;" style="shape=umlActor;verticalLabelPosition=bottom;verticalAlign=top;html=1;outlineConnect=0;" parent="1" vertex="1">
          <mxGeometry x="310" y="510" width="30" height="60" as="geometry" />
        </mxCell>
        <mxCell id="6zh7Bu0ZLJJWDLKkboeI-17" value="admin&lt;br&gt;&lt;div&gt;&lt;br&gt;&lt;/div&gt;" style="shape=umlActor;verticalLabelPosition=bottom;verticalAlign=top;html=1;outlineConnect=0;" parent="1" vertex="1">
          <mxGeometry x="310" y="600" width="30" height="60" as="geometry" />
        </mxCell>
        <mxCell id="6zh7Bu0ZLJJWDLKkboeI-21" value="payment system" style="shape=umlActor;verticalLabelPosition=bottom;verticalAlign=top;html=1;outlineConnect=0;" parent="1" vertex="1">
          <mxGeometry x="1160" y="505" width="30" height="60" as="geometry" />
        </mxCell>
        <mxCell id="6zh7Bu0ZLJJWDLKkboeI-22" value="" style="ellipse;whiteSpace=wrap;html=1;" parent="1" vertex="1">
          <mxGeometry x="600" y="400" width="120" height="50" as="geometry" />
        </mxCell>
        <mxCell id="6zh7Bu0ZLJJWDLKkboeI-23" value="" style="ellipse;whiteSpace=wrap;html=1;" parent="1" vertex="1">
          <mxGeometry x="574" y="610" width="120" height="50" as="geometry" />
        </mxCell>
        <mxCell id="6zh7Bu0ZLJJWDLKkboeI-24" value="logIn" style="text;html=1;align=center;verticalAlign=middle;whiteSpace=wrap;rounded=0;" parent="1" vertex="1">
          <mxGeometry x="630" y="410" width="60" height="30" as="geometry" />
        </mxCell>
        <mxCell id="6zh7Bu0ZLJJWDLKkboeI-25" value="SingUp" style="text;html=1;align=center;verticalAlign=middle;whiteSpace=wrap;rounded=0;" parent="1" vertex="1">
          <mxGeometry x="600" y="620" width="60" height="30" as="geometry" />
        </mxCell>
        <mxCell id="6zh7Bu0ZLJJWDLKkboeI-26" value="" style="ellipse;whiteSpace=wrap;html=1;" parent="1" vertex="1">
          <mxGeometry x="970" y="390" width="120" height="50" as="geometry" />
        </mxCell>
        <mxCell id="6zh7Bu0ZLJJWDLKkboeI-27" value="" style="ellipse;whiteSpace=wrap;html=1;" parent="1" vertex="1">
          <mxGeometry x="970" y="540" width="120" height="50" as="geometry" />
        </mxCell>
        <mxCell id="6zh7Bu0ZLJJWDLKkboeI-28" value="" style="ellipse;whiteSpace=wrap;html=1;" parent="1" vertex="1">
          <mxGeometry x="970" y="460" width="120" height="50" as="geometry" />
        </mxCell>
        <mxCell id="6zh7Bu0ZLJJWDLKkboeI-29" value="borrow" style="text;html=1;align=center;verticalAlign=middle;whiteSpace=wrap;rounded=0;" parent="1" vertex="1">
          <mxGeometry x="1000" y="400" width="60" height="30" as="geometry" />
        </mxCell>
        <mxCell id="6zh7Bu0ZLJJWDLKkboeI-30" value="return" style="text;html=1;align=center;verticalAlign=middle;whiteSpace=wrap;rounded=0;" parent="1" vertex="1">
          <mxGeometry x="1000" y="550" width="60" height="30" as="geometry" />
        </mxCell>
        <mxCell id="6zh7Bu0ZLJJWDLKkboeI-31" value="payment" style="text;html=1;align=center;verticalAlign=middle;whiteSpace=wrap;rounded=0;" parent="1" vertex="1">
          <mxGeometry x="1000" y="470" width="60" height="30" as="geometry" />
        </mxCell>
        <mxCell id="6zh7Bu0ZLJJWDLKkboeI-32" value="" style="ellipse;whiteSpace=wrap;html=1;" parent="1" vertex="1">
          <mxGeometry x="740" y="390" width="120" height="50" as="geometry" />
        </mxCell>
        <mxCell id="6zh7Bu0ZLJJWDLKkboeI-33" value="" style="ellipse;whiteSpace=wrap;html=1;" parent="1" vertex="1">
          <mxGeometry x="750" y="450" width="120" height="50" as="geometry" />
        </mxCell>
        <mxCell id="6zh7Bu0ZLJJWDLKkboeI-34" value="" style="ellipse;whiteSpace=wrap;html=1;" parent="1" vertex="1">
          <mxGeometry x="750" y="510" width="120" height="50" as="geometry" />
        </mxCell>
        <mxCell id="6zh7Bu0ZLJJWDLKkboeI-35" value="user login" style="text;html=1;align=center;verticalAlign=middle;whiteSpace=wrap;rounded=0;" parent="1" vertex="1">
          <mxGeometry x="770" y="400" width="60" height="30" as="geometry" />
        </mxCell>
        <mxCell id="6zh7Bu0ZLJJWDLKkboeI-36" value="library login" style="text;html=1;align=center;verticalAlign=middle;whiteSpace=wrap;rounded=0;" parent="1" vertex="1">
          <mxGeometry x="780" y="460" width="60" height="30" as="geometry" />
        </mxCell>
        <mxCell id="6zh7Bu0ZLJJWDLKkboeI-37" value="admin login" style="text;html=1;align=center;verticalAlign=middle;whiteSpace=wrap;rounded=0;" parent="1" vertex="1">
          <mxGeometry x="780" y="520" width="60" height="30" as="geometry" />
        </mxCell>
        <mxCell id="6zh7Bu0ZLJJWDLKkboeI-38" value="" style="endArrow=none;html=1;rounded=0;entryX=0;entryY=0.5;entryDx=0;entryDy=0;" parent="1" source="6zh7Bu0ZLJJWDLKkboeI-15" target="6zh7Bu0ZLJJWDLKkboeI-22" edge="1">
          <mxGeometry width="50" height="50" relative="1" as="geometry">
            <mxPoint x="630" y="570" as="sourcePoint" />
            <mxPoint x="680" y="520" as="targetPoint" />
          </mxGeometry>
        </mxCell>
        <mxCell id="6zh7Bu0ZLJJWDLKkboeI-39" value="" style="endArrow=none;html=1;rounded=0;entryX=0;entryY=0.5;entryDx=0;entryDy=0;" parent="1" target="6zh7Bu0ZLJJWDLKkboeI-23" edge="1">
          <mxGeometry width="50" height="50" relative="1" as="geometry">
            <mxPoint x="340" y="450" as="sourcePoint" />
            <mxPoint x="610" y="435" as="targetPoint" />
          </mxGeometry>
        </mxCell>
        <mxCell id="6zh7Bu0ZLJJWDLKkboeI-43" value="" style="endArrow=none;html=1;rounded=0;entryX=0;entryY=0.5;entryDx=0;entryDy=0;" parent="1" source="6zh7Bu0ZLJJWDLKkboeI-16" target="6zh7Bu0ZLJJWDLKkboeI-22" edge="1">
          <mxGeometry width="50" height="50" relative="1" as="geometry">
            <mxPoint x="630" y="570" as="sourcePoint" />
            <mxPoint x="680" y="520" as="targetPoint" />
          </mxGeometry>
        </mxCell>
        <mxCell id="6zh7Bu0ZLJJWDLKkboeI-44" value="" style="ellipse;whiteSpace=wrap;html=1;" parent="1" vertex="1">
          <mxGeometry x="600" y="740" width="120" height="50" as="geometry" />
        </mxCell>
        <mxCell id="6zh7Bu0ZLJJWDLKkboeI-45" value="" style="ellipse;whiteSpace=wrap;html=1;" parent="1" vertex="1">
          <mxGeometry x="600" y="804" width="120" height="50" as="geometry" />
        </mxCell>
        <mxCell id="6zh7Bu0ZLJJWDLKkboeI-46" value="Ql sách" style="text;html=1;align=center;verticalAlign=middle;whiteSpace=wrap;rounded=0;" parent="1" vertex="1">
          <mxGeometry x="620" y="750" width="60" height="30" as="geometry" />
        </mxCell>
        <mxCell id="6zh7Bu0ZLJJWDLKkboeI-47" value="Ql khách" style="text;html=1;align=center;verticalAlign=middle;whiteSpace=wrap;rounded=0;" parent="1" vertex="1">
          <mxGeometry x="630" y="814" width="60" height="30" as="geometry" />
        </mxCell>
        <mxCell id="6zh7Bu0ZLJJWDLKkboeI-48" value="" style="endArrow=none;html=1;rounded=0;entryX=0.027;entryY=0.375;entryDx=0;entryDy=0;entryPerimeter=0;" parent="1" target="6zh7Bu0ZLJJWDLKkboeI-44" edge="1">
          <mxGeometry width="50" height="50" relative="1" as="geometry">
            <mxPoint x="350" y="544" as="sourcePoint" />
            <mxPoint x="610" y="435" as="targetPoint" />
          </mxGeometry>
        </mxCell>
        <mxCell id="6zh7Bu0ZLJJWDLKkboeI-49" value="" style="endArrow=none;html=1;rounded=0;entryX=0;entryY=0.5;entryDx=0;entryDy=0;" parent="1" target="6zh7Bu0ZLJJWDLKkboeI-45" edge="1">
          <mxGeometry width="50" height="50" relative="1" as="geometry">
            <mxPoint x="360" y="554" as="sourcePoint" />
            <mxPoint x="613" y="769" as="targetPoint" />
          </mxGeometry>
        </mxCell>
        <mxCell id="6zh7Bu0ZLJJWDLKkboeI-50" value="" style="endArrow=none;html=1;rounded=0;entryX=0.027;entryY=0.621;entryDx=0;entryDy=0;entryPerimeter=0;" parent="1" source="6zh7Bu0ZLJJWDLKkboeI-17" target="6zh7Bu0ZLJJWDLKkboeI-22" edge="1">
          <mxGeometry width="50" height="50" relative="1" as="geometry">
            <mxPoint x="630" y="640" as="sourcePoint" />
            <mxPoint x="680" y="590" as="targetPoint" />
          </mxGeometry>
        </mxCell>
        <mxCell id="6zh7Bu0ZLJJWDLKkboeI-51" value="" style="endArrow=none;html=1;rounded=0;" parent="1" edge="1">
          <mxGeometry width="50" height="50" relative="1" as="geometry">
            <mxPoint x="350" y="629" as="sourcePoint" />
            <mxPoint x="600" y="760" as="targetPoint" />
          </mxGeometry>
        </mxCell>
        <mxCell id="6zh7Bu0ZLJJWDLKkboeI-52" value="" style="endArrow=none;html=1;rounded=0;" parent="1" edge="1">
          <mxGeometry width="50" height="50" relative="1" as="geometry">
            <mxPoint x="360" y="639" as="sourcePoint" />
            <mxPoint x="600" y="830" as="targetPoint" />
          </mxGeometry>
        </mxCell>
        <mxCell id="6zh7Bu0ZLJJWDLKkboeI-53" value="" style="endArrow=none;html=1;rounded=0;exitX=1;exitY=0.5;exitDx=0;exitDy=0;" parent="1" source="6zh7Bu0ZLJJWDLKkboeI-28" target="6zh7Bu0ZLJJWDLKkboeI-21" edge="1">
          <mxGeometry width="50" height="50" relative="1" as="geometry">
            <mxPoint x="630" y="570" as="sourcePoint" />
            <mxPoint x="680" y="520" as="targetPoint" />
          </mxGeometry>
        </mxCell>
        <mxCell id="6zh7Bu0ZLJJWDLKkboeI-54" value="" style="endArrow=none;dashed=1;html=1;dashPattern=1 3;strokeWidth=2;rounded=0;entryX=0;entryY=0.5;entryDx=0;entryDy=0;exitX=1;exitY=0.5;exitDx=0;exitDy=0;" parent="1" source="6zh7Bu0ZLJJWDLKkboeI-22" target="6zh7Bu0ZLJJWDLKkboeI-32" edge="1">
          <mxGeometry width="50" height="50" relative="1" as="geometry">
            <mxPoint x="630" y="570" as="sourcePoint" />
            <mxPoint x="680" y="520" as="targetPoint" />
          </mxGeometry>
        </mxCell>
        <mxCell id="6zh7Bu0ZLJJWDLKkboeI-55" value="" style="endArrow=none;dashed=1;html=1;dashPattern=1 3;strokeWidth=2;rounded=0;entryX=0;entryY=0.5;entryDx=0;entryDy=0;exitX=1;exitY=0.5;exitDx=0;exitDy=0;" parent="1" source="6zh7Bu0ZLJJWDLKkboeI-22" target="6zh7Bu0ZLJJWDLKkboeI-33" edge="1">
          <mxGeometry width="50" height="50" relative="1" as="geometry">
            <mxPoint x="730" y="435" as="sourcePoint" />
            <mxPoint x="750" y="425" as="targetPoint" />
          </mxGeometry>
        </mxCell>
        <mxCell id="6zh7Bu0ZLJJWDLKkboeI-56" value="" style="endArrow=none;dashed=1;html=1;dashPattern=1 3;strokeWidth=2;rounded=0;entryX=0;entryY=0.5;entryDx=0;entryDy=0;" parent="1" target="6zh7Bu0ZLJJWDLKkboeI-34" edge="1">
          <mxGeometry width="50" height="50" relative="1" as="geometry">
            <mxPoint x="720" y="430" as="sourcePoint" />
            <mxPoint x="760" y="485" as="targetPoint" />
          </mxGeometry>
        </mxCell>
        <mxCell id="6zh7Bu0ZLJJWDLKkboeI-58" value="" style="endArrow=none;dashed=1;html=1;dashPattern=1 3;strokeWidth=2;rounded=0;entryX=0;entryY=0.5;entryDx=0;entryDy=0;exitX=1;exitY=0.5;exitDx=0;exitDy=0;" parent="1" source="6zh7Bu0ZLJJWDLKkboeI-32" target="6zh7Bu0ZLJJWDLKkboeI-26" edge="1">
          <mxGeometry width="50" height="50" relative="1" as="geometry">
            <mxPoint x="720" y="570" as="sourcePoint" />
            <mxPoint x="770" y="520" as="targetPoint" />
          </mxGeometry>
        </mxCell>
        <mxCell id="6zh7Bu0ZLJJWDLKkboeI-59" value="&amp;lt;ex&amp;gt;" style="text;html=1;align=center;verticalAlign=middle;whiteSpace=wrap;rounded=0;" parent="1" vertex="1">
          <mxGeometry x="870" y="390" width="50" height="20" as="geometry" />
        </mxCell>
        <mxCell id="6zh7Bu0ZLJJWDLKkboeI-60" value="" style="endArrow=none;dashed=1;html=1;dashPattern=1 3;strokeWidth=2;rounded=0;entryX=0;entryY=0.5;entryDx=0;entryDy=0;" parent="1" target="6zh7Bu0ZLJJWDLKkboeI-27" edge="1">
          <mxGeometry width="50" height="50" relative="1" as="geometry">
            <mxPoint x="860" y="420" as="sourcePoint" />
            <mxPoint x="930" y="425" as="targetPoint" />
          </mxGeometry>
        </mxCell>
        <mxCell id="6zh7Bu0ZLJJWDLKkboeI-61" value="" style="endArrow=none;dashed=1;html=1;dashPattern=1 3;strokeWidth=2;rounded=0;entryX=0;entryY=0.5;entryDx=0;entryDy=0;" parent="1" target="6zh7Bu0ZLJJWDLKkboeI-28" edge="1">
          <mxGeometry width="50" height="50" relative="1" as="geometry">
            <mxPoint x="870" y="430" as="sourcePoint" />
            <mxPoint x="930" y="485" as="targetPoint" />
          </mxGeometry>
        </mxCell>
        <mxCell id="6zh7Bu0ZLJJWDLKkboeI-62" value="&amp;lt;ex&amp;gt;" style="text;html=1;align=center;verticalAlign=middle;whiteSpace=wrap;rounded=0;" parent="1" vertex="1">
          <mxGeometry x="880" y="430" width="50" height="20" as="geometry" />
        </mxCell>
        <mxCell id="6zh7Bu0ZLJJWDLKkboeI-63" value="&amp;lt;ex&amp;gt;" style="text;html=1;align=center;verticalAlign=middle;whiteSpace=wrap;rounded=0;" parent="1" vertex="1">
          <mxGeometry x="890" y="490" width="50" height="20" as="geometry" />
        </mxCell>
        <mxCell id="6zh7Bu0ZLJJWDLKkboeI-64" value="" style="endArrow=none;dashed=1;html=1;dashPattern=1 3;strokeWidth=2;rounded=0;entryX=0.5;entryY=0;entryDx=0;entryDy=0;exitX=0.5;exitY=1;exitDx=0;exitDy=0;" parent="1" source="6zh7Bu0ZLJJWDLKkboeI-26" target="6zh7Bu0ZLJJWDLKkboeI-28" edge="1">
          <mxGeometry width="50" height="50" relative="1" as="geometry">
            <mxPoint x="890" y="560" as="sourcePoint" />
            <mxPoint x="940" y="510" as="targetPoint" />
          </mxGeometry>
        </mxCell>
        <mxCell id="6zh7Bu0ZLJJWDLKkboeI-65" value="&amp;lt;in&amp;gt;" style="text;html=1;align=center;verticalAlign=middle;whiteSpace=wrap;rounded=0;" parent="1" vertex="1">
          <mxGeometry x="1030" y="440" width="50" height="20" as="geometry" />
        </mxCell>
      </root>
    </mxGraphModel>
  </diagram>
</mxfile>
